<svg width="776" height="776" viewBox="0 0 776 776" fill="none" xmlns="http://www.w3.org/2000/svg">
<g style="mix-blend-mode:screen">
<path d="M170.631 626.058C229.153 684.581 322.018 691.635 408.415 673.101C496.131 654.283 586.651 607.452 649.395 544.708C714.147 479.956 734.405 407.549 722.928 337.289C711.735 268.768 670.999 205.717 620.479 155.197C509.399 44.1172 317.956 68.904 193.737 193.123C67.2263 319.634 61.5372 516.965 170.631 626.058Z" stroke="#B5E42E" stroke-width="59.657"/>
</g>
<g style="mix-blend-mode:screen" filter="url(#filter0_f_0_1)">
<path d="M155.036 620.645C266.148 731.757 457.771 706.725 582.165 582.332C706.559 457.938 731.591 266.314 620.479 155.203C509.367 44.0908 317.744 69.1223 193.35 193.516C68.9559 317.91 43.9244 509.533 155.036 620.645Z" stroke="#B5E42E" stroke-width="59.657"/>
</g>
<defs>
<filter id="filter0_f_0_1" x="0.14185" y="0.308109" width="775.231" height="775.231" filterUnits="userSpaceOnUse" color-interpolation-filters="sRGB">
<feFlood flood-opacity="0" result="BackgroundImageFix"/>
<feBlend mode="normal" in="SourceGraphic" in2="BackgroundImageFix" result="shape"/>
<feGaussianBlur stdDeviation="27.1168" result="effect1_foregroundBlur_0_1"/>
</filter>
</defs>
</svg>
