<svg width="24" height="16" fill="none" xmlns="http://www.w3.org/2000/svg"><path d="M21.75.25H2.25a2 2 0 0 0-2 2v11.5a2 2 0 0 0 2 2h19.5a2 2 0 0 0 2-2V2.25a2 2 0 0 0-2-2Z" fill="#DCDFE6"/><rect x="3" y="4.087" width="5.478" height="3.913" rx=".783" fill="#fff"/><rect x="3" y="10.348" width="3.913" height="1.565" rx=".783" fill="#B2B8C7"/><rect x="7.696" y="10.348" width="3.913" height="1.565" rx=".783" fill="#B2B8C7"/><rect x="12.391" y="10.348" width="3.913" height="1.565" rx=".783" fill="#B2B8C7"/><rect x="17.087" y="10.348" width="3.913" height="1.565" rx=".783" fill="#B2B8C7"/></svg>