<svg width="147" height="34" fill="none" xmlns="http://www.w3.org/2000/svg"><path d="M46.461 19.398v-1.645h3.098c.482 0 .872-.39.872-.872h-3.97v-1.553h3.845c.482 0 .872-.39.872-.872h-5.705v5.814h5.788a.872.872 0 0 0-.872-.872h-3.928ZM66.805 14.456h-6.279c0 .482.39.872.872.872h1.761v4.942h.997v-4.942h1.777c.482 0 .872-.39.872-.872ZM77.518 19.398v-1.645h3.098c.482 0 .872-.39.872-.872h-3.97v-1.553h3.845c.482 0 .873-.39.873-.872H76.53v5.814h5.789a.872.872 0 0 0-.873-.872h-3.928ZM98.776 20.27l-1.886-2.16c1.014-.182 1.711-.797 1.711-1.802 0-1.204-.996-1.852-2.35-1.852h-3.954v5.814c.551 0 .997-.446.997-.997V18.16h2.45l1.802 2.11h1.23Zm-5.49-2.965v-1.977h2.898c.831 0 1.396.266 1.396.989 0 .722-.565.988-1.396.988h-2.898ZM114.097 14.456v4.41l-3.605-3.653a2.544 2.544 0 0 0-1.81-.757v5.814h.963v-4.585l3.924 3.96c.396.4.936.625 1.5.625v-5.814h-.972ZM130.994 20.27h1.088l-2.879-5.331a.92.92 0 0 0-1.618-.001l-2.887 5.332h1.08l.739-1.404h3.729l.748 1.404Zm-4.028-2.25 1.42-2.692 1.42 2.691h-2.84ZM142.714 19.39v-3.937a.996.996 0 0 0-.996-.997v5.814H147a.88.88 0 0 0-.88-.88h-3.406Z" fill="#F5F5F5"/><path d="M9.874 26.072c2.203 2.204 5.7 2.47 8.952 1.771 3.303-.708 6.711-2.471 9.073-4.834 2.438-2.438 3.201-5.164 2.77-7.81-.422-2.58-1.956-4.953-3.858-6.855-4.182-4.182-11.39-3.25-16.067 1.428-4.764 4.763-4.978 12.193-.87 16.3Z" stroke="#AFF220" stroke-width="2.246" style="mix-blend-mode:screen"/><g style="mix-blend-mode:screen" filter="url(#a)"><path d="M9.287 25.868c4.183 4.184 11.398 3.241 16.081-1.442 4.684-4.684 5.626-11.899 1.443-16.082-4.184-4.184-11.398-3.241-16.082 1.442-4.683 4.684-5.626 11.899-1.442 16.082Z" stroke="#AFF220" stroke-width="2.246"/></g><path d="M19.466 29.462c5.915 0 10.352-5.757 10.352-12.371 0-6.614-4.437-12.371-10.352-12.371-5.914 0-10.351 5.757-10.351 12.37 0 6.615 4.437 12.372 10.351 12.372Z" stroke="#F82D98" stroke-width="2.246" style="mix-blend-mode:screen"/><g style="mix-blend-mode:screen" filter="url(#b)"><path d="M19.466 29.462c5.915 0 10.352-5.757 10.352-12.371 0-6.614-4.437-12.371-10.352-12.371-5.914 0-10.351 5.757-10.351 12.37 0 6.615 4.437 12.372 10.351 12.372Z" stroke="#F82D98" stroke-width="2.246"/></g><path d="M26.811 25.84c4.183-4.182 3.25-11.39-1.427-16.067-2.323-2.322-5.215-4.01-8.07-4.625-2.864-.618-5.804-.167-7.95 1.98-2.106 2.105-2.899 5.299-2.634 8.44.267 3.159 1.61 6.44 4.014 8.844 4.677 4.677 11.885 5.61 16.067 1.428Z" stroke="#fff" stroke-width="2.246" style="mix-blend-mode:screen"/><g style="mix-blend-mode:screen" filter="url(#c)"><path d="M29.077 22.982c3.22-5 .578-11.94-5.137-15.62-5.716-3.679-13.126-3.21-16.345 1.79-3.22 5-.577 11.939 5.138 15.618 5.715 3.68 13.125 3.212 16.344-1.788Z" stroke="#FFFEF0" stroke-width="2.246"/></g><g style="mix-blend-mode:screen" filter="url(#d)"><path d="M35.16 17.11c0-3.3-1.818-6.126-4.437-8.059-2.62-1.933-6.148-3.07-9.96-3.07-3.81 0-7.338 1.137-9.959 3.07-2.62 1.933-4.436 4.76-4.436 8.058 0 3.3 1.816 6.126 4.436 8.059 2.62 1.933 6.148 3.07 9.96 3.07 3.81 0 7.338-1.137 9.959-3.07 2.62-1.933 4.436-4.76 4.436-8.059Z" stroke="#5833EF" stroke-width="3.88"/></g><g style="mix-blend-mode:screen" filter="url(#e)"><path d="M32.505 17.111C32.505 11.27 27.09 6.8 20.764 6.8c-6.327 0-11.742 4.47-11.742 10.311 0 5.842 5.415 10.312 11.742 10.312 6.326 0 11.74-4.47 11.74-10.312Z" stroke="#933EFF" stroke-width="2.246"/></g><defs><filter id="a" x="3.455" y="2.512" width="29.188" height="29.188" filterUnits="userSpaceOnUse" color-interpolation-filters="sRGB"><feFlood flood-opacity="0" result="BackgroundImageFix"/><feBlend in="SourceGraphic" in2="BackgroundImageFix" result="shape"/><feGaussianBlur stdDeviation="1.021" result="effect1_foregroundBlur_1_3314"/></filter><filter id="b" x="5.95" y="1.555" width="27.033" height="31.072" filterUnits="userSpaceOnUse" color-interpolation-filters="sRGB"><feFlood flood-opacity="0" result="BackgroundImageFix"/><feBlend in="SourceGraphic" in2="BackgroundImageFix" result="shape"/><feGaussianBlur stdDeviation="1.021" result="effect1_foregroundBlur_1_3314"/></filter><filter id="c" x="3.031" y="1.785" width="30.611" height="28.562" filterUnits="userSpaceOnUse" color-interpolation-filters="sRGB"><feFlood flood-opacity="0" result="BackgroundImageFix"/><feBlend in="SourceGraphic" in2="BackgroundImageFix" result="shape"/><feGaussianBlur stdDeviation="1.021" result="effect1_foregroundBlur_1_3314"/></filter><filter id="d" x=".752" y=".366" width="40.022" height="33.488" filterUnits="userSpaceOnUse" color-interpolation-filters="sRGB"><feFlood flood-opacity="0" result="BackgroundImageFix"/><feBlend in="SourceGraphic" in2="BackgroundImageFix" result="shape"/><feGaussianBlur stdDeviation="1.838" result="effect1_foregroundBlur_1_3314"/></filter><filter id="e" x="5.857" y="3.635" width="29.812" height="26.953" filterUnits="userSpaceOnUse" color-interpolation-filters="sRGB"><feFlood flood-opacity="0" result="BackgroundImageFix"/><feBlend in="SourceGraphic" in2="BackgroundImageFix" result="shape"/><feGaussianBlur stdDeviation="1.021" result="effect1_foregroundBlur_1_3314"/></filter></defs></svg>