<svg width="25" height="24" fill="none" xmlns="http://www.w3.org/2000/svg"><mask id="a" style="mask-type:luminance" maskUnits="userSpaceOnUse" x="1" y="0" width="24" height="24"><path d="M24.307 9.818H13.125v4.637h6.436c-.6 2.945-3.109 4.636-6.436 4.636A7.077 7.077 0 0 1 6.035 12a7.077 7.077 0 0 1 7.09-7.09c1.69 0 3.218.6 4.418 1.58L21.034 3c-2.127-1.855-4.854-3-7.909-3-6.655 0-12 5.345-12 12s5.345 12 12 12c6 0 11.455-4.364 11.455-12 0-.71-.11-1.473-.273-2.182Z" fill="#fff"/></mask><g mask="url(#a)"><path d="M.034 19.091V4.909L9.307 12 .034 19.091Z" fill="#FBBC05"/></g><mask id="b" style="mask-type:luminance" maskUnits="userSpaceOnUse" x="1" y="0" width="24" height="24"><path d="M24.307 9.818H13.125v4.637h6.436c-.6 2.945-3.109 4.636-6.436 4.636A7.077 7.077 0 0 1 6.035 12a7.077 7.077 0 0 1 7.09-7.09c1.69 0 3.218.6 4.418 1.58L21.034 3c-2.127-1.855-4.854-3-7.909-3-6.655 0-12 5.345-12 12s5.345 12 12 12c6 0 11.455-4.364 11.455-12 0-.71-.11-1.473-.273-2.182Z" fill="#fff"/></mask><g mask="url(#b)"><path d="M.034 4.91 9.307 12l3.818-3.327 13.09-2.127v-7.637H.036v6Z" fill="#EA4335"/></g><mask id="c" style="mask-type:luminance" maskUnits="userSpaceOnUse" x="1" y="0" width="24" height="24"><path d="M24.307 9.818H13.125v4.637h6.436c-.6 2.945-3.109 4.636-6.436 4.636A7.077 7.077 0 0 1 6.035 12a7.077 7.077 0 0 1 7.09-7.09c1.69 0 3.218.6 4.418 1.58L21.034 3c-2.127-1.855-4.854-3-7.909-3-6.655 0-12 5.345-12 12s5.345 12 12 12c6 0 11.455-4.364 11.455-12 0-.71-.11-1.473-.273-2.182Z" fill="#fff"/></mask><g mask="url(#c)"><path d="M.034 19.091 16.398 6.546l4.309.545 5.509-8.182v26.182H.034v-6Z" fill="#34A853"/></g><mask id="d" style="mask-type:luminance" maskUnits="userSpaceOnUse" x="1" y="0" width="24" height="24"><path d="M24.307 9.818H13.125v4.637h6.436c-.6 2.945-3.109 4.636-6.436 4.636A7.077 7.077 0 0 1 6.035 12a7.077 7.077 0 0 1 7.09-7.09c1.69 0 3.218.6 4.418 1.58L21.034 3c-2.127-1.855-4.854-3-7.909-3-6.655 0-12 5.345-12 12s5.345 12 12 12c6 0 11.455-4.364 11.455-12 0-.71-.11-1.473-.273-2.182Z" fill="#fff"/></mask><g mask="url(#d)"><path d="m26.216 25.091-16.91-13.09-2.181-1.637 19.09-5.455v20.182Z" fill="#4285F4"/></g></svg>