<svg width="60" height="50" fill="none" xmlns="http://www.w3.org/2000/svg"><path d="M14.093 38.348c3.235 3.235 8.37 3.625 13.146 2.6 4.85-1.04 9.854-3.629 13.322-7.098 3.58-3.58 4.7-7.582 4.066-11.467-.62-3.788-2.871-7.274-5.664-10.067-6.141-6.14-16.725-4.77-23.593 2.097-6.994 6.994-7.308 17.904-1.277 23.935Z" stroke="#AFF220" stroke-width="3.298" style="mix-blend-mode:screen"/><g style="mix-blend-mode:screen" filter="url(#a)"><path d="M13.23 38.048c6.143 6.143 16.737 4.76 23.614-2.118 6.878-6.877 8.261-17.47 2.119-23.614-6.143-6.142-16.737-4.759-23.614 2.118-6.877 6.878-8.261 17.471-2.118 23.614Z" stroke="#AFF220" stroke-width="3.298"/></g><path d="M28.18 43.326c8.684 0 15.2-8.453 15.2-18.165S36.863 6.996 28.18 6.996c-8.685 0-15.2 8.453-15.2 18.165s6.515 18.165 15.2 18.165Z" stroke="#F82D98" stroke-width="3.298" style="mix-blend-mode:screen"/><g style="mix-blend-mode:screen" filter="url(#b)"><path d="M28.18 43.326c8.684 0 15.2-8.453 15.2-18.165S36.863 6.996 28.18 6.996c-8.685 0-15.2 8.453-15.2 18.165s6.515 18.165 15.2 18.165Z" stroke="#F82D98" stroke-width="3.298"/></g><path d="M38.964 38.006c6.141-6.141 4.77-16.725-2.097-23.593-3.41-3.41-7.657-5.887-11.848-6.79-4.206-.908-8.523-.245-11.675 2.906-3.091 3.091-4.256 7.781-3.867 12.395.392 4.637 2.364 9.455 5.895 12.985 6.867 6.867 17.451 8.238 23.592 2.097Z" stroke="#fff" stroke-width="3.298" style="mix-blend-mode:screen"/><g style="mix-blend-mode:screen" filter="url(#c)"><path d="M42.293 33.809c4.727-7.343.848-17.532-7.544-22.934-8.392-5.403-19.273-4.716-24 2.626-4.727 7.342-.847 17.532 7.545 22.934 8.391 5.403 19.272 4.716 24-2.627Z" stroke="#FFFEF0" stroke-width="3.298"/></g><g style="mix-blend-mode:screen" filter="url(#d)"><path d="M51.22 25.19c0-4.844-2.667-8.995-6.514-11.833-3.847-2.839-9.027-4.508-14.623-4.508-5.597 0-10.776 1.67-14.624 4.508-3.847 2.838-6.514 6.989-6.514 11.832 0 4.844 2.667 8.995 6.514 11.833 3.848 2.839 9.027 4.508 14.624 4.508 5.596 0 10.776-1.67 14.623-4.508 3.847-2.838 6.515-6.989 6.515-11.832Z" stroke="#5833EF" stroke-width="5.697"/></g><g style="mix-blend-mode:screen" filter="url(#e)"><path d="M47.324 25.19c0-8.579-7.95-15.142-17.24-15.142s-17.24 6.563-17.24 15.141c0 8.579 7.95 15.142 17.24 15.142s17.24-6.563 17.24-15.142Z" stroke="#933EFF" stroke-width="3.298"/></g><defs><filter id="a" x="4.667" y="3.753" width="42.859" height="42.859" filterUnits="userSpaceOnUse" color-interpolation-filters="sRGB"><feFlood flood-opacity="0" result="BackgroundImageFix"/><feBlend in="SourceGraphic" in2="BackgroundImageFix" result="shape"/><feGaussianBlur stdDeviation="1.499" result="effect1_foregroundBlur_1_1631"/></filter><filter id="b" x="8.332" y="2.348" width="39.694" height="45.625" filterUnits="userSpaceOnUse" color-interpolation-filters="sRGB"><feFlood flood-opacity="0" result="BackgroundImageFix"/><feBlend in="SourceGraphic" in2="BackgroundImageFix" result="shape"/><feGaussianBlur stdDeviation="1.499" result="effect1_foregroundBlur_1_1631"/></filter><filter id="c" x="4.047" y="2.685" width="44.949" height="41.94" filterUnits="userSpaceOnUse" color-interpolation-filters="sRGB"><feFlood flood-opacity="0" result="BackgroundImageFix"/><feBlend in="SourceGraphic" in2="BackgroundImageFix" result="shape"/><feGaussianBlur stdDeviation="1.499" result="effect1_foregroundBlur_1_1631"/></filter><filter id="d" x=".699" y=".603" width="58.767" height="49.172" filterUnits="userSpaceOnUse" color-interpolation-filters="sRGB"><feFlood flood-opacity="0" result="BackgroundImageFix"/><feBlend in="SourceGraphic" in2="BackgroundImageFix" result="shape"/><feGaussianBlur stdDeviation="2.698" result="effect1_foregroundBlur_1_1631"/></filter><filter id="e" x="8.196" y="5.401" width="43.775" height="39.578" filterUnits="userSpaceOnUse" color-interpolation-filters="sRGB"><feFlood flood-opacity="0" result="BackgroundImageFix"/><feBlend in="SourceGraphic" in2="BackgroundImageFix" result="shape"/><feGaussianBlur stdDeviation="1.499" result="effect1_foregroundBlur_1_1631"/></filter></defs></svg>