<svg width="498" height="29" fill="none" xmlns="http://www.w3.org/2000/svg"><path d="M4.84 24.677v-8.053h15.172a4.27 4.27 0 0 0 4.27-4.27H4.84V4.746h18.832a4.27 4.27 0 0 0 4.27-4.27H0v28.471h28.35a4.27 4.27 0 0 0-4.271-4.27H4.84ZM104.471.477h-30.75a4.27 4.27 0 0 0 4.272 4.27h8.623v24.201h4.88v-24.2h8.705a4.27 4.27 0 0 0 4.27-4.271ZM156.936 24.677v-8.053h15.172a4.271 4.271 0 0 0 4.271-4.27h-19.443V4.746h18.832a4.27 4.27 0 0 0 4.271-4.27h-27.943v28.471h28.35a4.27 4.27 0 0 0-4.271-4.27h-19.239ZM261.042 28.948l-9.233-10.575c4.962-.895 8.379-3.905 8.379-8.826 0-5.898-4.881-9.07-11.511-9.07h-19.361v28.471a4.88 4.88 0 0 0 4.881-4.88v-5.45h11.999l8.826 10.33h6.02Zm-26.886-14.52v-9.68h14.196c4.067 0 6.833 1.3 6.833 4.84 0 3.538-2.766 4.84-6.833 4.84h-14.196ZM336.074.477v21.597L318.418 4.182a12.452 12.452 0 0 0-8.863-3.705v28.471h4.718V6.496l19.214 19.39a10.341 10.341 0 0 0 7.346 3.062V.477h-4.759ZM418.824 28.948h5.328L410.054 2.84a4.505 4.505 0 0 0-7.923-.004l-14.138 26.112h5.288l3.62-6.874h18.262l3.661 6.874Zm-19.727-11.022 6.955-13.179 6.955 13.179h-13.91ZM476.224 24.637V5.357a4.88 4.88 0 0 0-4.881-4.88v28.471h25.868a4.311 4.311 0 0 0-4.311-4.311h-16.676Z" fill="#F5F5F5"/></svg>