<svg width="21" height="24" fill="none" xmlns="http://www.w3.org/2000/svg"><path d="m6.312 22.923.419-2.658-.932-.021h-4.45L4.44.634A.253.253 0 0 1 4.692.42h7.504c2.492-.001 4.21.517 5.108 1.54.421.48.69.982.819 1.534.136.58.138 1.271.005 2.115l-.01.062v.54l.422.239c.354.188.636.403.852.65.36.41.592.932.69 1.55.102.636.069 1.393-.098 2.25-.192.985-.502 1.844-.921 2.546a5.237 5.237 0 0 1-1.46 1.6 5.923 5.923 0 0 1-1.967.887c-.724.189-1.55.284-2.457.284h-.584c-.418 0-.823.15-1.142.42-.319.275-.53.651-.595 1.063l-.044.239-.74 4.684-.033.172c-.009.054-.024.081-.046.1a.124.124 0 0 1-.077.028H6.312Z" fill="#253B80"/><path d="M18.939 5.734c-.023.144-.049.29-.077.44-.99 5.081-4.375 6.836-8.7 6.836H7.961a1.07 1.07 0 0 0-1.057.906l-1.127 7.149-.32 2.026a.563.563 0 0 0 .557.651h3.905a.94.94 0 0 0 .928-.792l.038-.198.735-4.666.047-.256a.939.939 0 0 1 .928-.793h.584c3.783 0 6.745-1.536 7.61-5.981.362-1.857.175-3.407-.782-4.498a3.733 3.733 0 0 0-1.069-.824Z" fill="#179BD7"/><path d="M17.903 5.32a7.806 7.806 0 0 0-.962-.213A12.227 12.227 0 0 0 15 4.966H9.118a.934.934 0 0 0-.927.793L6.94 13.684l-.036.231a1.07 1.07 0 0 1 1.057-.905h2.201c4.324 0 7.71-1.756 8.7-6.836.03-.15.054-.297.076-.44a5.275 5.275 0 0 0-.813-.344 7.236 7.236 0 0 0-.222-.07Z" fill="#222D65"/><path d="M8.191 5.76a.935.935 0 0 1 .927-.794H15c.697 0 1.347.046 1.94.142a7.806 7.806 0 0 1 1.185.282c.293.097.564.212.814.344.295-1.878-.002-3.156-1.017-4.314C16.802.146 14.782-.4 12.198-.4H4.694c-.528 0-.979.384-1.06.906L.508 20.318a.645.645 0 0 0 .636.746h4.633l1.163-7.38 1.251-7.925Z" fill="#253B80"/></svg>