<svg width="20" height="20" viewBox="0 0 20 20" fill="none" xmlns="http://www.w3.org/2000/svg">
<g clip-path="url(#clip0_1_1613)">
<path d="M16.4286 0.714233H3.5715C1.99354 0.714233 0.714355 1.99342 0.714355 3.57138V16.4285C0.714355 18.0065 1.99354 19.2857 3.5715 19.2857H16.4286C18.0066 19.2857 19.2858 18.0065 19.2858 16.4285V3.57138C19.2858 1.99342 18.0066 0.714233 16.4286 0.714233Z" stroke="white" stroke-width="1.42857" stroke-linecap="round" stroke-linejoin="round"/>
<path d="M6.02068 6.7312C5.62633 6.7312 5.30664 6.41151 5.30664 6.01714C5.30664 5.62279 5.62633 5.3031 6.02068 5.3031" stroke="white" stroke-width="1.42857" stroke-linecap="round" stroke-linejoin="round"/>
<path d="M6.01953 6.73096C6.41389 6.73096 6.73359 6.41126 6.73359 6.0169C6.73359 5.62254 6.41389 5.30286 6.01953 5.30286" stroke="white" stroke-width="1.42857" stroke-linecap="round" stroke-linejoin="round"/>
<path d="M10.0502 10.7172C9.65587 10.7172 9.33618 10.3975 9.33618 10.0031C9.33618 9.60875 9.65587 9.28906 10.0502 9.28906" stroke="white" stroke-width="1.42857" stroke-linecap="round" stroke-linejoin="round"/>
<path d="M10.0491 10.717C10.4434 10.717 10.7631 10.3973 10.7631 10.003C10.7631 9.60863 10.4434 9.28894 10.0491 9.28894" stroke="white" stroke-width="1.42857" stroke-linecap="round" stroke-linejoin="round"/>
<path d="M13.9807 6.7312C13.5863 6.7312 13.2666 6.41151 13.2666 6.01714C13.2666 5.62279 13.5863 5.3031 13.9807 5.3031" stroke="white" stroke-width="1.42857" stroke-linecap="round" stroke-linejoin="round"/>
<path d="M13.9795 6.73096C14.3739 6.73096 14.6936 6.41126 14.6936 6.0169C14.6936 5.62254 14.3739 5.30286 13.9795 5.30286" stroke="white" stroke-width="1.42857" stroke-linecap="round" stroke-linejoin="round"/>
<path d="M6.02068 14.6971C5.62633 14.6971 5.30664 14.3774 5.30664 13.9831C5.30664 13.5887 5.62633 13.269 6.02068 13.269" stroke="white" stroke-width="1.42857" stroke-linecap="round" stroke-linejoin="round"/>
<path d="M6.01953 14.697C6.41389 14.697 6.73359 14.3773 6.73359 13.983C6.73359 13.5886 6.41389 13.2689 6.01953 13.2689" stroke="white" stroke-width="1.42857" stroke-linecap="round" stroke-linejoin="round"/>
<path d="M13.9807 14.6971C13.5863 14.6971 13.2666 14.3774 13.2666 13.9831C13.2666 13.5887 13.5863 13.269 13.9807 13.269" stroke="white" stroke-width="1.42857" stroke-linecap="round" stroke-linejoin="round"/>
<path d="M13.9795 14.697C14.3739 14.697 14.6936 14.3773 14.6936 13.983C14.6936 13.5886 14.3739 13.2689 13.9795 13.2689" stroke="white" stroke-width="1.42857" stroke-linecap="round" stroke-linejoin="round"/>
</g>
<defs>
<clipPath id="clip0_1_1613">
<rect width="20" height="20" fill="white"/>
</clipPath>
</defs>
</svg>
