<svg width="20" height="20" fill="none" xmlns="http://www.w3.org/2000/svg"><g stroke="#fff" stroke-width="1.429"><path d="M16.429.714H3.572A2.857 2.857 0 0 0 .714 3.571v12.857a2.857 2.857 0 0 0 2.857 2.858H16.43a2.857 2.857 0 0 0 2.857-2.858V3.572A2.857 2.857 0 0 0 16.429.714Z"/><path d="M6.02 6.731a.714.714 0 0 1 0-1.428M6.02 6.731a.714.714 0 0 0 0-1.428M10.05 10.717a.714.714 0 0 1 0-1.428M10.05 10.717a.714.714 0 0 0 0-1.428M13.98 6.731a.714.714 0 1 1 0-1.428M13.98 6.731a.714.714 0 1 0 0-1.428M6.02 14.697a.714.714 0 0 1 0-1.428M6.02 14.697a.714.714 0 1 0 0-1.428M13.98 14.697a.714.714 0 1 1 0-1.428M13.98 14.697a.714.714 0 1 0 0-1.428"/></g></svg>