<svg width="24" height="24" viewBox="0 0 24 24" fill="none" xmlns="http://www.w3.org/2000/svg">
<path d="M21 15C21 15.5304 20.7893 16.0391 20.4142 16.4142C20.0391 16.7893 19.5304 17 19 17H7L3 21V5C3 4.46957 3.21071 3.96086 3.58579 3.58579C3.96086 3.21071 4.46957 3 5 3H19C19.5304 3 20.0391 3.21071 20.4142 3.58579C20.7893 3.96086 21 4.46957 21 5V15Z" stroke="white" stroke-linecap="round" stroke-linejoin="round"/>
<path d="M5.759 11.573C5.759 11.573 6.291 12.098 7.404 12.098C8.538 12.098 9.042 11.538 9.042 10.824C9.042 10.173 8.622 9.802 7.558 9.515C6.795 9.305 6.55 9.165 6.55 8.878C6.55 8.542 6.872 8.353 7.397 8.353C8.132 8.353 8.566 8.696 8.566 8.696L8.944 8.129C8.944 8.129 8.482 7.709 7.397 7.709C6.368 7.709 5.794 8.171 5.794 8.906C5.794 9.564 6.263 9.879 7.25 10.159C8.055 10.39 8.272 10.551 8.272 10.873C8.272 11.209 8.013 11.454 7.39 11.454C6.641 11.454 6.137 11.048 6.137 11.048L5.759 11.573ZM13.3541 12H14.0471V7.8H13.8651L11.9401 9.76L10.0291 7.8H9.83311V12H10.5261V9.263L11.8631 10.649H12.0241L13.3541 9.263V12ZM14.8508 11.573C14.8508 11.573 15.3828 12.098 16.4958 12.098C17.6298 12.098 18.1338 11.538 18.1338 10.824C18.1338 10.173 17.7138 9.802 16.6498 9.515C15.8868 9.305 15.6418 9.165 15.6418 8.878C15.6418 8.542 15.9638 8.353 16.4888 8.353C17.2238 8.353 17.6578 8.696 17.6578 8.696L18.0358 8.129C18.0358 8.129 17.5738 7.709 16.4888 7.709C15.4598 7.709 14.8858 8.171 14.8858 8.906C14.8858 9.564 15.3548 9.879 16.3418 10.159C17.1468 10.39 17.3638 10.551 17.3638 10.873C17.3638 11.209 17.1048 11.454 16.4818 11.454C15.7328 11.454 15.2288 11.048 15.2288 11.048L14.8508 11.573Z" fill="white"/>
</svg>
