<svg width="32" height="32" viewBox="0 0 32 32" fill="none" xmlns="http://www.w3.org/2000/svg">
<circle cx="16" cy="16.0007" r="16" fill="url(#paint0_linear_1_1951)"/>
<g clip-path="url(#clip0_1_1951)">
<path d="M22.8574 11.7482C22.3528 11.9722 21.8105 12.1231 21.2414 12.1911C21.8225 11.8431 22.2688 11.2916 22.4785 10.6345C21.9351 10.9568 21.3328 11.1911 20.6916 11.3173C20.1791 10.7705 19.4471 10.4288 18.6379 10.4288C16.8214 10.4288 15.4865 12.1236 15.8968 13.8831C13.5591 13.7659 11.4859 12.6459 10.0979 10.9436C9.36078 12.2082 9.71564 13.8625 10.9682 14.7002C10.5076 14.6853 10.0734 14.5591 9.69449 14.3482C9.66364 15.6516 10.5979 16.8711 11.9511 17.1425C11.5551 17.2499 11.1214 17.2751 10.6802 17.1905C11.0379 18.3082 12.0768 19.1213 13.3088 19.1442C12.1259 20.0716 10.6356 20.4859 9.14307 20.3099C10.3882 21.1082 11.8676 21.5739 13.4562 21.5739C18.6802 21.5739 21.6316 17.1619 21.4534 13.2048C22.0031 12.8076 22.4802 12.3122 22.8574 11.7482V11.7482Z" fill="white"/>
</g>
<defs>
<linearGradient id="paint0_linear_1_1951" x1="32" y1="36.4713" x2="-11.1426" y2="27.7712" gradientUnits="userSpaceOnUse">
<stop stop-color="#F82D98"/>
<stop offset="1" stop-color="#5833EF"/>
</linearGradient>
<clipPath id="clip0_1_1951">
<rect width="13.7143" height="13.7143" fill="white" transform="translate(9.14307 9.14362)"/>
</clipPath>
</defs>
</svg>
