<svg width="16" height="12" fill="none" xmlns="http://www.w3.org/2000/svg"><path fill-rule="evenodd" clip-rule="evenodd" d="M15.527 3.074s-.151-1.064-.614-1.533c-.588-.615-1.246-.618-1.548-.654C11.205.731 7.962.731 7.962.731h-.007s-3.241 0-5.403.156c-.301.036-.96.04-1.547.654-.463.47-.614 1.533-.614 1.533s-.154 1.25-.154 2.5v1.172c0 1.25.154 2.5.154 2.5s.15 1.063.614 1.532c.587.615 1.36.596 1.703.66 1.236.119 5.25.155 5.25.155s3.246-.004 5.407-.16c.302-.037.96-.04 1.548-.655.463-.469.614-1.533.614-1.533s.154-1.25.154-2.5V5.575c0-1.25-.154-2.5-.154-2.5ZM6.364 8.165V3.826l4.173 2.177-4.173 2.162Z" fill="#fff"/></svg>