<svg width="32" height="32" viewBox="0 0 32 32" fill="none" xmlns="http://www.w3.org/2000/svg">
<circle cx="16" cy="16.0007" r="16" fill="url(#paint0_linear_1_1959)"/>
<path fill-rule="evenodd" clip-rule="evenodd" d="M23.5267 13.0745C23.5267 13.0745 23.3757 12.0102 22.9126 11.5414C22.3255 10.9264 21.6671 10.9234 21.3653 10.8874C19.2041 10.7311 15.9623 10.7311 15.9623 10.7311H15.9554C15.9554 10.7311 12.7137 10.7311 10.5524 10.8874C10.2505 10.9234 9.59246 10.9264 9.00507 11.5414C8.54192 12.0102 8.39126 13.0745 8.39126 13.0745C8.39126 13.0745 8.23682 14.3242 8.23682 15.574V16.7458C8.23682 17.9954 8.39126 19.2452 8.39126 19.2452C8.39126 19.2452 8.54192 20.3095 9.00507 20.7783C9.59246 21.3935 10.3641 21.3737 10.7079 21.4382C11.9436 21.5568 15.9588 21.5935 15.9588 21.5935C15.9588 21.5935 19.2041 21.5886 21.3653 21.4324C21.6671 21.3964 22.3255 21.3935 22.9126 20.7783C23.3757 20.3095 23.5267 19.2452 23.5267 19.2452C23.5267 19.2452 23.6808 17.9954 23.6808 16.7458V15.574C23.6808 14.3242 23.5267 13.0745 23.5267 13.0745ZM14.3645 18.1655L14.3638 13.8262L18.5368 16.0033L14.3645 18.1655Z" fill="white"/>
<defs>
<linearGradient id="paint0_linear_1_1959" x1="32" y1="36.4713" x2="-11.1426" y2="27.7712" gradientUnits="userSpaceOnUse">
<stop stop-color="#F82D98"/>
<stop offset="1" stop-color="#5833EF"/>
</linearGradient>
</defs>
</svg>
