<svg width="14" height="12" fill="none" xmlns="http://www.w3.org/2000/svg"><path d="M13.857 1.748a5.618 5.618 0 0 1-1.616.443A2.818 2.818 0 0 0 13.48.634a5.636 5.636 0 0 1-1.787.683 2.816 2.816 0 0 0-4.795 2.566 7.988 7.988 0 0 1-5.8-2.94A2.817 2.817 0 0 0 1.969 4.7a2.802 2.802 0 0 1-1.274-.352c-.03 1.304.904 2.523 2.257 2.794a2.82 2.82 0 0 1-1.27.048 2.816 2.816 0 0 0 2.628 1.954A5.657 5.657 0 0 1 .143 10.31a7.965 7.965 0 0 0 4.313 1.264c5.224 0 8.176-4.412 7.997-8.37a5.73 5.73 0 0 0 1.404-1.456Z" fill="#fff"/></svg>